<svg id="visual" viewBox="0 0 1920 1080" width="1920" height="1080" xmlns="http://www.w3.org/2000/svg" xmlns:xlink="http://www.w3.org/1999/xlink" version="1.1"><g stroke-width="1" stroke-linejoin="bevel"><path d="M990.8 496L985.8 377L925.2 425Z" fill="#3e2d5b" stroke="#3e2d5b"></path><path d="M990.8 496L1156.5 492L985.8 377Z" fill="#212648" stroke="#212648"></path><path d="M1161.5 288L1027.8 242L985.8 377Z" fill="#85336d" stroke="#85336d"></path><path d="M985.8 377L872.2 270L925.2 425Z" fill="#fc7c1c" stroke="#fc7c1c"></path><path d="M1027.8 242L872.2 270L985.8 377Z" fill="#e24852" stroke="#e24852"></path><path d="M739.5 555L838.2 584L925.2 425Z" fill="#e24852" stroke="#e24852"></path><path d="M925.2 425L838.2 584L990.8 496Z" fill="#e24852" stroke="#e24852"></path><path d="M990.8 496L1000.8 670L1156.5 492Z" fill="#212648" stroke="#212648"></path><path d="M838.2 584L908.2 641L990.8 496Z" fill="#f45f3c" stroke="#f45f3c"></path><path d="M1156.5 492L1207.5 420L985.8 377Z" fill="#00101c" stroke="#00101c"></path><path d="M1207.5 420L1161.5 288L985.8 377Z" fill="#f45f3c" stroke="#f45f3c"></path><path d="M908.2 641L1000.8 670L990.8 496Z" fill="#0c1c32" stroke="#0c1c32"></path><path d="M713.5 398L739.5 555L925.2 425Z" fill="#00101c" stroke="#00101c"></path><path d="M838.2 584L861.2 771L908.2 641Z" fill="#f45f3c" stroke="#f45f3c"></path><path d="M872.2 270L713.5 398L925.2 425Z" fill="#3e2d5b" stroke="#3e2d5b"></path><path d="M1161.5 288L1028.8 161L1027.8 242Z" fill="#3e2d5b" stroke="#3e2d5b"></path><path d="M1027.8 242L1028.8 161L872.2 270Z" fill="#a9346b" stroke="#a9346b"></path><path d="M838.2 156L720.5 288L872.2 270Z" fill="#00101c" stroke="#00101c"></path><path d="M872.2 270L720.5 288L713.5 398Z" fill="#fc7c1c" stroke="#fc7c1c"></path><path d="M1000.8 670L1212.5 643L1156.5 492Z" fill="#613167" stroke="#613167"></path><path d="M1156.5 492L1281.2 525L1207.5 420Z" fill="#212648" stroke="#212648"></path><path d="M1212.5 643L1281.2 525L1156.5 492Z" fill="#c93a61" stroke="#c93a61"></path><path d="M1207.5 420L1322.2 295L1161.5 288Z" fill="#00101c" stroke="#00101c"></path><path d="M1028.8 161L838.2 156L872.2 270Z" fill="#c93a61" stroke="#c93a61"></path><path d="M704.5 688L861.2 771L838.2 584Z" fill="#c93a61" stroke="#c93a61"></path><path d="M908.2 641L861.2 771L1000.8 670Z" fill="#e24852" stroke="#e24852"></path><path d="M1000.8 670L1051.8 842L1212.5 643Z" fill="#3e2d5b" stroke="#3e2d5b"></path><path d="M1281.2 525L1339.2 406L1207.5 420Z" fill="#3e2d5b" stroke="#3e2d5b"></path><path d="M1161.5 288L1186.5 100L1028.8 161Z" fill="#0c1c32" stroke="#0c1c32"></path><path d="M1339.2 406L1322.2 295L1207.5 420Z" fill="#613167" stroke="#613167"></path><path d="M616.8 552L704.5 688L739.5 555Z" fill="#f45f3c" stroke="#f45f3c"></path><path d="M739.5 555L704.5 688L838.2 584Z" fill="#e24852" stroke="#e24852"></path><path d="M574.8 375L616.8 552L713.5 398Z" fill="#e24852" stroke="#e24852"></path><path d="M713.5 398L616.8 552L739.5 555Z" fill="#fc7c1c" stroke="#fc7c1c"></path><path d="M1322.2 295L1186.5 100L1161.5 288Z" fill="#f45f3c" stroke="#f45f3c"></path><path d="M1028.8 161L999.8 0L838.2 156Z" fill="#613167" stroke="#613167"></path><path d="M561.8 154L608.8 308L720.5 288Z" fill="#a9346b" stroke="#a9346b"></path><path d="M720.5 288L608.8 308L713.5 398Z" fill="#f45f3c" stroke="#f45f3c"></path><path d="M861.2 771L1051.8 842L1000.8 670Z" fill="#212648" stroke="#212648"></path><path d="M1356.2 805L1339.2 648L1212.5 643Z" fill="#613167" stroke="#613167"></path><path d="M1212.5 643L1339.2 648L1281.2 525Z" fill="#a9346b" stroke="#a9346b"></path><path d="M1281.2 525L1498.9 562L1339.2 406Z" fill="#0c1c32" stroke="#0c1c32"></path><path d="M608.8 308L574.8 375L713.5 398Z" fill="#f45f3c" stroke="#f45f3c"></path><path d="M858.2 0L717.5 113L838.2 156Z" fill="#f45f3c" stroke="#f45f3c"></path><path d="M838.2 156L717.5 113L720.5 288Z" fill="#00101c" stroke="#00101c"></path><path d="M1186.5 100L999.8 0L1028.8 161Z" fill="#00101c" stroke="#00101c"></path><path d="M999.8 0L858.2 0L838.2 156Z" fill="#85336d" stroke="#85336d"></path><path d="M560.8 654L695.5 806L704.5 688Z" fill="#fc7c1c" stroke="#fc7c1c"></path><path d="M704.5 688L695.5 806L861.2 771Z" fill="#85336d" stroke="#85336d"></path><path d="M861.2 771L1032.8 929L1051.8 842Z" fill="#212648" stroke="#212648"></path><path d="M1051.8 842L1205.5 856L1212.5 643Z" fill="#f45f3c" stroke="#f45f3c"></path><path d="M616.8 552L560.8 654L704.5 688Z" fill="#e24852" stroke="#e24852"></path><path d="M454.1 641L560.8 654L421.1 574Z" fill="#613167" stroke="#613167"></path><path d="M1186.5 100L1177.5 0L999.8 0Z" fill="#0c1c32" stroke="#0c1c32"></path><path d="M1284.2 0L1177.5 0L1186.5 100Z" fill="#f45f3c" stroke="#f45f3c"></path><path d="M1442.9 161L1325.2 94L1322.2 295Z" fill="#a9346b" stroke="#a9346b"></path><path d="M1322.2 295L1325.2 94L1186.5 100Z" fill="#a9346b" stroke="#a9346b"></path><path d="M880.2 978L1032.8 929L861.2 771Z" fill="#f45f3c" stroke="#f45f3c"></path><path d="M1051.8 842L1032.8 929L1205.5 856Z" fill="#a9346b" stroke="#a9346b"></path><path d="M858.2 0L732.5 0L717.5 113Z" fill="#0c1c32" stroke="#0c1c32"></path><path d="M717.5 113L561.8 154L720.5 288Z" fill="#f45f3c" stroke="#f45f3c"></path><path d="M476.1 308L472.1 390L574.8 375Z" fill="#85336d" stroke="#85336d"></path><path d="M556.8 0L561.8 154L717.5 113Z" fill="#613167" stroke="#613167"></path><path d="M574.8 375L472.1 390L616.8 552Z" fill="#a9346b" stroke="#a9346b"></path><path d="M476.1 308L574.8 375L608.8 308Z" fill="#fc7c1c" stroke="#fc7c1c"></path><path d="M1356.2 805L1456.9 639L1339.2 648Z" fill="#f45f3c" stroke="#f45f3c"></path><path d="M1339.2 648L1498.9 562L1281.2 525Z" fill="#85336d" stroke="#85336d"></path><path d="M1339.2 406L1517.9 316L1322.2 295Z" fill="#f45f3c" stroke="#f45f3c"></path><path d="M561.8 154L476.1 308L608.8 308Z" fill="#a9346b" stroke="#a9346b"></path><path d="M1335.2 921L1356.2 805L1205.5 856Z" fill="#a9346b" stroke="#a9346b"></path><path d="M1205.5 856L1356.2 805L1212.5 643Z" fill="#613167" stroke="#613167"></path><path d="M1325.2 94L1284.2 0L1186.5 100Z" fill="#fc7c1c" stroke="#fc7c1c"></path><path d="M1456.9 639L1498.9 562L1339.2 648Z" fill="#212648" stroke="#212648"></path><path d="M1498.9 562L1517.9 426L1339.2 406Z" fill="#212648" stroke="#212648"></path><path d="M1325.2 94L1486.9 0L1284.2 0Z" fill="#f45f3c" stroke="#f45f3c"></path><path d="M1517.9 316L1442.9 161L1322.2 295Z" fill="#e24852" stroke="#e24852"></path><path d="M1517.9 426L1517.9 316L1339.2 406Z" fill="#e24852" stroke="#e24852"></path><path d="M760.5 968L880.2 978L861.2 771Z" fill="#3e2d5b" stroke="#3e2d5b"></path><path d="M421.1 574L616.8 552L472.1 390Z" fill="#a9346b" stroke="#a9346b"></path><path d="M421.1 574L560.8 654L616.8 552Z" fill="#f45f3c" stroke="#f45f3c"></path><path d="M560.8 654L556.8 837L695.5 806Z" fill="#a9346b" stroke="#a9346b"></path><path d="M695.5 806L760.5 968L861.2 771Z" fill="#a9346b" stroke="#a9346b"></path><path d="M582.8 949L760.5 968L695.5 806Z" fill="#fc7c1c" stroke="#fc7c1c"></path><path d="M326.4 566L421.1 574L293.4 426Z" fill="#0c1c32" stroke="#0c1c32"></path><path d="M1048.8 1080L1202.5 976L1032.8 929Z" fill="#00101c" stroke="#00101c"></path><path d="M1032.8 929L1202.5 976L1205.5 856Z" fill="#00101c" stroke="#00101c"></path><path d="M454.1 641L556.8 837L560.8 654Z" fill="#0c1c32" stroke="#0c1c32"></path><path d="M1202.5 976L1335.2 921L1205.5 856Z" fill="#fc7c1c" stroke="#fc7c1c"></path><path d="M1356.2 805L1461.9 825L1456.9 639Z" fill="#c93a61" stroke="#c93a61"></path><path d="M1456.9 639L1614.6 586L1498.9 562Z" fill="#e24852" stroke="#e24852"></path><path d="M732.5 0L556.8 0L717.5 113Z" fill="#212648" stroke="#212648"></path><path d="M561.8 154L396.1 148L476.1 308Z" fill="#a9346b" stroke="#a9346b"></path><path d="M1647.6 370L1581.6 303L1517.9 426Z" fill="#85336d" stroke="#85336d"></path><path d="M1517.9 426L1581.6 303L1517.9 316Z" fill="#f45f3c" stroke="#f45f3c"></path><path d="M1517.9 316L1581.6 303L1442.9 161Z" fill="#0c1c32" stroke="#0c1c32"></path><path d="M1335.2 921L1461.9 825L1356.2 805Z" fill="#00101c" stroke="#00101c"></path><path d="M1498.9 562L1614.6 586L1517.9 426Z" fill="#a9346b" stroke="#a9346b"></path><path d="M880.2 978L1048.8 1080L1032.8 929Z" fill="#613167" stroke="#613167"></path><path d="M1202.5 976L1282.2 1080L1335.2 921Z" fill="#a9346b" stroke="#a9346b"></path><path d="M878.2 1080L1048.8 1080L880.2 978Z" fill="#212648" stroke="#212648"></path><path d="M1623.6 679L1614.6 586L1456.9 639Z" fill="#3e2d5b" stroke="#3e2d5b"></path><path d="M433.1 905L582.8 949L556.8 837Z" fill="#00101c" stroke="#00101c"></path><path d="M556.8 837L582.8 949L695.5 806Z" fill="#e24852" stroke="#e24852"></path><path d="M760.5 968L878.2 1080L880.2 978Z" fill="#00101c" stroke="#00101c"></path><path d="M405.1 847L556.8 837L454.1 641Z" fill="#212648" stroke="#212648"></path><path d="M735.5 1080L878.2 1080L760.5 968Z" fill="#e24852" stroke="#e24852"></path><path d="M447.1 0L396.1 148L561.8 154Z" fill="#613167" stroke="#613167"></path><path d="M293.4 426L421.1 574L472.1 390Z" fill="#0c1c32" stroke="#0c1c32"></path><path d="M1637.6 181L1486.9 0L1442.9 161Z" fill="#fc7c1c" stroke="#fc7c1c"></path><path d="M1442.9 161L1486.9 0L1325.2 94Z" fill="#3e2d5b" stroke="#3e2d5b"></path><path d="M1614.6 586L1647.6 370L1517.9 426Z" fill="#fc7c1c" stroke="#fc7c1c"></path><path d="M1581.6 303L1637.6 181L1442.9 161Z" fill="#00101c" stroke="#00101c"></path><path d="M293.4 426L472.1 390L299.4 301Z" fill="#fc7c1c" stroke="#fc7c1c"></path><path d="M421.1 574L326.4 566L454.1 641Z" fill="#c93a61" stroke="#c93a61"></path><path d="M1048.8 1080L1195.5 1080L1202.5 976Z" fill="#3e2d5b" stroke="#3e2d5b"></path><path d="M1335.2 921L1517.9 905L1461.9 825Z" fill="#c93a61" stroke="#c93a61"></path><path d="M1461.9 825L1623.6 679L1456.9 639Z" fill="#0c1c32" stroke="#0c1c32"></path><path d="M1614.6 586L1757.3 528L1647.6 370Z" fill="#00101c" stroke="#00101c"></path><path d="M1629.6 837L1623.6 679L1461.9 825Z" fill="#fc7c1c" stroke="#fc7c1c"></path><path d="M582.8 949L735.5 1080L760.5 968Z" fill="#c93a61" stroke="#c93a61"></path><path d="M299.4 301L472.1 390L476.1 308Z" fill="#85336d" stroke="#85336d"></path><path d="M556.8 0L447.1 0L561.8 154Z" fill="#c93a61" stroke="#c93a61"></path><path d="M396.1 148L299.4 301L476.1 308Z" fill="#e24852" stroke="#e24852"></path><path d="M268.4 180L299.4 301L396.1 148Z" fill="#c93a61" stroke="#c93a61"></path><path d="M1758.3 255L1637.6 181L1581.6 303Z" fill="#613167" stroke="#613167"></path><path d="M1195.5 1080L1282.2 1080L1202.5 976Z" fill="#f45f3c" stroke="#f45f3c"></path><path d="M270.4 700L405.1 847L454.1 641Z" fill="#fc7c1c" stroke="#fc7c1c"></path><path d="M582.8 949L550.8 1080L735.5 1080Z" fill="#f45f3c" stroke="#f45f3c"></path><path d="M1517.9 1080L1517.9 905L1335.2 921Z" fill="#85336d" stroke="#85336d"></path><path d="M405.1 847L433.1 905L556.8 837Z" fill="#3e2d5b" stroke="#3e2d5b"></path><path d="M1647.6 930L1629.6 837L1517.9 905Z" fill="#e24852" stroke="#e24852"></path><path d="M1517.9 905L1629.6 837L1461.9 825Z" fill="#fc7c1c" stroke="#fc7c1c"></path><path d="M1729.3 714L1757.3 528L1614.6 586Z" fill="#613167" stroke="#613167"></path><path d="M290.4 0L268.4 180L396.1 148Z" fill="#613167" stroke="#613167"></path><path d="M299.4 301L166.7 418L293.4 426Z" fill="#00101c" stroke="#00101c"></path><path d="M124.7 539L270.4 700L326.4 566Z" fill="#85336d" stroke="#85336d"></path><path d="M326.4 566L270.4 700L454.1 641Z" fill="#212648" stroke="#212648"></path><path d="M405.1 847L329.4 981L433.1 905Z" fill="#212648" stroke="#212648"></path><path d="M124.7 539L326.4 566L293.4 426Z" fill="#a9346b" stroke="#a9346b"></path><path d="M483.1 1080L582.8 949L433.1 905Z" fill="#fc7c1c" stroke="#fc7c1c"></path><path d="M483.1 1080L550.8 1080L582.8 949Z" fill="#3e2d5b" stroke="#3e2d5b"></path><path d="M1729.3 714L1614.6 586L1623.6 679Z" fill="#212648" stroke="#212648"></path><path d="M1647.6 370L1758.3 255L1581.6 303Z" fill="#85336d" stroke="#85336d"></path><path d="M1637.6 181L1645.6 0L1486.9 0Z" fill="#3e2d5b" stroke="#3e2d5b"></path><path d="M1776.3 126L1645.6 0L1637.6 181Z" fill="#3e2d5b" stroke="#3e2d5b"></path><path d="M1629.6 837L1729.3 714L1623.6 679Z" fill="#3e2d5b" stroke="#3e2d5b"></path><path d="M1784.3 384L1758.3 255L1647.6 370Z" fill="#212648" stroke="#212648"></path><path d="M270.4 700L285.4 823L405.1 847Z" fill="#3e2d5b" stroke="#3e2d5b"></path><path d="M1757.3 528L1784.3 384L1647.6 370Z" fill="#00101c" stroke="#00101c"></path><path d="M1920 380L1784.3 384L1920 536Z" fill="#c93a61" stroke="#c93a61"></path><path d="M329.4 981L483.1 1080L433.1 905Z" fill="#0c1c32" stroke="#0c1c32"></path><path d="M105.7 292L166.7 418L299.4 301Z" fill="#c93a61" stroke="#c93a61"></path><path d="M270.4 700L116.7 766L285.4 823Z" fill="#a9346b" stroke="#a9346b"></path><path d="M447.1 0L290.4 0L396.1 148Z" fill="#212648" stroke="#212648"></path><path d="M268.4 180L105.7 292L299.4 301Z" fill="#85336d" stroke="#85336d"></path><path d="M1517.9 1080L1647.6 930L1517.9 905Z" fill="#85336d" stroke="#85336d"></path><path d="M1629.6 837L1753.3 805L1729.3 714Z" fill="#3e2d5b" stroke="#3e2d5b"></path><path d="M1282.2 1080L1517.9 1080L1335.2 921Z" fill="#fc7c1c" stroke="#fc7c1c"></path><path d="M192.7 950L329.4 981L285.4 823Z" fill="#f45f3c" stroke="#f45f3c"></path><path d="M285.4 823L329.4 981L405.1 847Z" fill="#00101c" stroke="#00101c"></path><path d="M1920 228L1776.3 126L1758.3 255Z" fill="#fc7c1c" stroke="#fc7c1c"></path><path d="M1758.3 255L1776.3 126L1637.6 181Z" fill="#00101c" stroke="#00101c"></path><path d="M1647.6 930L1753.3 805L1629.6 837Z" fill="#f45f3c" stroke="#f45f3c"></path><path d="M1920 536L1784.3 384L1757.3 528Z" fill="#212648" stroke="#212648"></path><path d="M0 428L124.7 539L166.7 418Z" fill="#613167" stroke="#613167"></path><path d="M166.7 418L124.7 539L293.4 426Z" fill="#0c1c32" stroke="#0c1c32"></path><path d="M1776.3 126L1736.3 0L1645.6 0Z" fill="#e24852" stroke="#e24852"></path><path d="M124.7 539L129.7 674L270.4 700Z" fill="#0c1c32" stroke="#0c1c32"></path><path d="M140.7 127L105.7 292L268.4 180Z" fill="#212648" stroke="#212648"></path><path d="M0 782L116.7 766L129.7 674Z" fill="#3e2d5b" stroke="#3e2d5b"></path><path d="M290.4 0L140.7 127L268.4 180Z" fill="#c93a61" stroke="#c93a61"></path><path d="M192.7 950L323.4 1080L329.4 981Z" fill="#a9346b" stroke="#a9346b"></path><path d="M329.4 981L323.4 1080L483.1 1080Z" fill="#3e2d5b" stroke="#3e2d5b"></path><path d="M1659.6 1080L1747.3 954L1647.6 930Z" fill="#613167" stroke="#613167"></path><path d="M1647.6 930L1747.3 954L1753.3 805Z" fill="#613167" stroke="#613167"></path><path d="M1920 536L1757.3 528L1920 712Z" fill="#a9346b" stroke="#a9346b"></path><path d="M0 633L129.7 674L124.7 539Z" fill="#a9346b" stroke="#a9346b"></path><path d="M129.7 674L116.7 766L270.4 700Z" fill="#3e2d5b" stroke="#3e2d5b"></path><path d="M1517.9 1080L1659.6 1080L1647.6 930Z" fill="#a9346b" stroke="#a9346b"></path><path d="M290.4 0L153.7 0L140.7 127Z" fill="#85336d" stroke="#85336d"></path><path d="M0 270L0 428L105.7 292Z" fill="#f45f3c" stroke="#f45f3c"></path><path d="M1784.3 384L1920 228L1758.3 255Z" fill="#fc7c1c" stroke="#fc7c1c"></path><path d="M1776.3 126L1920 0L1736.3 0Z" fill="#212648" stroke="#212648"></path><path d="M1757.3 528L1729.3 714L1920 712Z" fill="#f45f3c" stroke="#f45f3c"></path><path d="M1920 712L1729.3 714L1753.3 805Z" fill="#3e2d5b" stroke="#3e2d5b"></path><path d="M116.7 766L192.7 950L285.4 823Z" fill="#00101c" stroke="#00101c"></path><path d="M1920 380L1920 228L1784.3 384Z" fill="#613167" stroke="#613167"></path><path d="M1920 771L1920 712L1753.3 805Z" fill="#212648" stroke="#212648"></path><path d="M1920 771L1753.3 805L1920 972Z" fill="#212648" stroke="#212648"></path><path d="M1920 228L1920 149L1776.3 126Z" fill="#f45f3c" stroke="#f45f3c"></path><path d="M0 270L105.7 292L0 135Z" fill="#0c1c32" stroke="#0c1c32"></path><path d="M105.7 292L0 428L166.7 418Z" fill="#85336d" stroke="#85336d"></path><path d="M0 428L0 507L124.7 539Z" fill="#85336d" stroke="#85336d"></path><path d="M116.7 766L0 969L192.7 950Z" fill="#a9346b" stroke="#a9346b"></path><path d="M1920 972L1753.3 805L1747.3 954Z" fill="#c93a61" stroke="#c93a61"></path><path d="M1659.6 1080L1745.3 1080L1747.3 954Z" fill="#0c1c32" stroke="#0c1c32"></path><path d="M0 135L105.7 292L140.7 127Z" fill="#f45f3c" stroke="#f45f3c"></path><path d="M0 507L0 633L124.7 539Z" fill="#85336d" stroke="#85336d"></path><path d="M0 0L0 135L140.7 127Z" fill="#212648" stroke="#212648"></path><path d="M1920 149L1920 0L1776.3 126Z" fill="#fc7c1c" stroke="#fc7c1c"></path><path d="M0 633L0 782L129.7 674Z" fill="#fc7c1c" stroke="#fc7c1c"></path><path d="M192.7 950L115.7 1080L323.4 1080Z" fill="#c93a61" stroke="#c93a61"></path><path d="M153.7 0L0 0L140.7 127Z" fill="#0c1c32" stroke="#0c1c32"></path><path d="M1745.3 1080L1920 972L1747.3 954Z" fill="#e24852" stroke="#e24852"></path><path d="M0 969L115.7 1080L192.7 950Z" fill="#e24852" stroke="#e24852"></path><path d="M0 782L0 969L116.7 766Z" fill="#212648" stroke="#212648"></path><path d="M1745.3 1080L1920 1080L1920 972Z" fill="#a9346b" stroke="#a9346b"></path><path d="M0 969L0 1080L115.7 1080Z" fill="#fc7c1c" stroke="#fc7c1c"></path></g></svg>